<svg width="173" height="156" viewBox="0 0 173 156" fill="none" xmlns="http://www.w3.org/2000/svg">
<circle cx="78" cy="78" r="78" fill="black"/>
<path d="M25 81.0853C25 81.0853 70.1976 76.0214 77.1766 108.213C74.8503 81.0853 43.6108 77.4682 43.6108 77.4682C43.6108 77.4682 46.8081 75.5873 51.4889 72.3848C53.0247 71.3342 54.7201 70.1413 56.5146 68.8259C56.5337 68.8119 56.5528 68.7979 56.5719 68.7839L55.944 68.5819L50.9222 66.9659C48.9989 68.2102 47.1062 69.3828 45.2733 70.4793C34.0094 77.2177 25 81.0853 25 81.0853Z" fill="white"/>
<path d="M25.997 91.9363C25.997 91.9363 70.5299 89.5515 75.515 110.383C71.8593 89.7661 40.6198 89.0427 40.6198 89.0427C40.6198 89.0427 44.8985 86.2983 51.5868 82.1704L46.6018 80.7235C33.9976 87.5844 25.997 91.9363 25.997 91.9363Z" fill="white"/>
<path d="M86.1497 87.5959C80.4145 103.135 69.2012 131 69.2012 131L79.8353 115.809C87.3408 105.257 98.1138 103.511 102.102 95.9151C92.1317 101.341 88.476 99.8938 88.476 99.8938C88.476 99.8938 99.7754 103.511 120.048 68.0639L104.76 72.7661C111.74 68.7873 120.84 66.4273 124.368 59.0214C129.021 49.2554 136 40.5745 136 40.5745C136 40.5745 101.769 45.2766 86.1497 87.5959Z" fill="white"/>
<path d="M25.997 68.4256C25.997 68.4256 34.7757 67.8509 45.2733 70.4793C47.1062 69.3828 48.9989 68.2102 50.9222 66.9659L55.944 68.5819C50.1766 66.1701 45.6048 65.8937 45.6048 65.8937C45.6048 65.8937 69.2006 50.3405 81.8293 33.3404C90.8024 38.766 95.4551 44.9149 102.434 55.4043C95.7874 40.2128 85.485 31.1702 80.8323 29C63.0707 52.5107 25.997 68.4256 25.997 68.4256Z" fill="white"/>
<path d="M56.5146 68.8259C54.7201 70.1413 53.0247 71.3342 51.4889 72.3848C62.9428 76.5936 74.7912 85.1453 78.8383 102.426C76.8568 81.7226 65.4241 72.7203 56.5146 68.8259Z" fill="white"/>
</svg>
